<svg width="352" height="268" viewBox="0 0 352 268" fill="none" xmlns="http://www.w3.org/2000/svg">
<ellipse cx="176" cy="160.5" rx="96" ry="79.5" fill="url(#paint0_linear_2_40)"/>
<path d="M162.905 8.78134L326.096 168.878L40.4714 201.841L162.905 8.78134Z" fill="#98C69F"/>
<ellipse cx="150.5" cy="129" rx="13.5" ry="30" fill="#2B2B2B"/>
<ellipse cx="202.5" cy="129" rx="13.5" ry="30" fill="#2B2B2B"/>
<path d="M235.668 77.3261L240.493 78.3037L239.516 83.1288L234.691 82.1511L235.668 77.3261ZM234.691 82.1511L239.516 83.1288L238.538 87.9538L233.713 86.9762L234.691 82.1511ZM233.713 86.9762L238.538 87.9538L237.56 92.7788L232.735 91.8012L233.713 86.9762ZM232.735 91.8012L237.56 92.7788L236.583 97.6039L231.758 96.6263L232.735 91.8012ZM231.758 96.6263L236.583 97.6039L235.605 102.429L230.78 101.451L231.758 96.6263ZM235.605 102.429L240.43 103.407L239.453 108.232L234.628 107.254L235.605 102.429ZM239.453 108.232L244.278 109.209L243.3 114.034L238.475 113.057L239.453 108.232ZM244.278 109.209L249.103 110.187L248.125 115.012L243.3 114.034L244.278 109.209ZM249.103 110.187L253.928 111.164L252.95 115.989L248.125 115.012L249.103 110.187ZM253.928 111.164L258.753 112.142L257.775 116.967L252.95 115.989L253.928 111.164ZM259.73 107.317L264.555 108.295L263.578 113.12L258.753 112.142L259.73 107.317ZM265.533 103.469L270.358 104.447L269.381 109.272L264.555 108.295L265.533 103.469ZM266.511 98.6444L271.336 99.622L270.358 104.447L265.533 103.469L266.511 98.6444ZM267.488 93.8194L272.313 94.797L271.336 99.622L266.511 98.6444L267.488 93.8194ZM263.641 88.0168L268.466 88.9944L267.488 93.8194L262.663 92.8418L263.641 88.0168ZM266.574 73.5417L271.399 74.5193L270.421 79.3443L265.596 78.3667L266.574 73.5417ZM252.099 70.6088L256.924 71.5865L255.946 76.4115L251.121 75.4339L252.099 70.6088ZM247.274 69.6312L252.099 70.6088L251.121 75.4339L246.296 74.4563L247.274 69.6312ZM241.471 73.4787L246.296 74.4563L245.318 79.2813L240.493 78.3037L241.471 73.4787ZM249.166 85.084L253.991 86.0616L253.013 90.8866L248.188 89.909L249.166 85.084ZM253.991 86.0616L258.816 87.0392L257.838 91.8642L253.013 90.8866L253.991 86.0616ZM248.188 89.909L253.013 90.8866L252.036 95.7116L247.211 94.734L248.188 89.909ZM247.211 94.734L252.036 95.7116L251.058 100.537L246.233 99.5591L247.211 94.734ZM242.385 93.7564L247.211 94.734L246.233 99.5591L241.408 98.5815L242.385 93.7564ZM256.924 71.5865L261.749 72.5641L260.771 77.3891L255.946 76.4115L256.924 71.5865ZM260.771 77.3891L265.596 78.3667L264.618 83.1917L259.793 82.2141L260.771 77.3891ZM258.816 87.0392L263.641 88.0168L262.663 92.8418L257.838 91.8642L258.816 87.0392Z" fill="#B90E0E"/>
<path d="M223.873 41.7864C225.168 60.6228 203.026 77.4884 174.415 79.4568C145.805 81.4251 121.561 67.7509 120.265 48.9145C118.969 30.0781 141.112 13.2125 169.722 11.2441C198.333 9.27575 222.577 22.95 223.873 41.7864Z" fill="url(#paint1_linear_2_40)"/>
<path d="M104.72 59.3759C104.374 54.3529 109.312 49.9219 115.75 49.479L227.775 41.7717C234.213 41.3289 239.711 45.0418 240.057 50.0649L241.308 68.2549C241.654 73.278 236.715 77.709 230.278 78.1518L118.253 85.8591C111.815 86.3019 106.317 82.589 105.971 77.5659L104.72 59.3759Z" fill="#B8CCC6"/>
<path d="M158.835 13.9698C158.835 13.9698 150.601 12.5055 153.307 9.27339C156.012 6.04124 160.534 10.2992 160.534 10.2992C160.534 10.2992 163.366 -0.556709 168.668 0.855363C173.97 2.26744 174.456 9.34134 174.456 9.34134C174.456 9.34134 181.047 5.84189 185.037 7.09042C189.026 8.33896 182.794 12.3214 182.794 12.3214C172.085 12.0343 166.852 12.3865 158.835 13.9698Z" fill="#9AADA7"/>
<defs>
<linearGradient id="paint0_linear_2_40" x1="176.478" y1="240" x2="176.478" y2="113.709" gradientUnits="userSpaceOnUse">
<stop offset="0.230769" stop-color="#6E8C4F"/>
<stop offset="1" stop-color="#1E2615"/>
</linearGradient>
<linearGradient id="paint1_linear_2_40" x1="168.669" y1="0.655529" x2="174.265" y2="82.0055" gradientUnits="userSpaceOnUse">
<stop offset="0.394231" stop-color="#B8CCC6"/>
<stop offset="1" stop-color="#5C6663"/>
</linearGradient>
</defs>
</svg>
